<svg xmlns="http://www.w3.org/2000/svg" viewBox="0 0 32 32" width="32" height="32">
  <path d="M26.9,18.9l2.2-2.2c0.4-0.4,0.4-1,0-1.4l-2.2-2.2c-0.2-0.2-0.5-0.3-0.8-0.2l-2.9,0.8
    c-0.7-0.9-1.5-1.7-2.4-2.4l0.8-2.9c0.1-0.3-0.1-0.6-0.2-0.8L19,5.1c-0.4-0.4-1-0.4-1.4,0l-2.2,2.2
    c-0.2,0.2-0.5,0.3-0.8,0.2l-2.9-0.8c-0.9,0.7-1.7,1.5-2.4,2.4l-2.9-0.8c-0.3-0.1-0.6,0.1-0.8,0.2L3.1,13
    c-0.4,0.4-0.4,1,0,1.4l2.2,2.2c0.2,0.2,0.3,0.5,0.2,0.8l-0.8,2.9c0.7,0.9,1.5,1.7,2.4,2.4l2.9-0.8
    c0.3,0.1,0.6-0.1,0.8-0.2l2.2,2.2c0.4,0.4,1,0.4,1.4,0l2.2-2.2c0.2-0.2,0.5-0.3,0.8-0.2l2.9,0.8
    c0.9-0.7,1.7-1.5,2.4-2.4l2.9,0.8C26.6,19.2,26.8,19.1,26.9,18.9z" 
    fill="none" stroke="#FFFFFF" stroke-width="2" stroke-linecap="round" stroke-linejoin="round"/>
  <circle cx="16" cy="16" r="5" fill="none" stroke="#FFFFFF" stroke-width="2"/>
</svg>
